<?xml version="1.0" encoding="utf-8" standalone="no"?>
<!DOCTYPE svg PUBLIC "-//W3C//DTD SVG 1.1//EN"
  "http://www.w3.org/Graphics/SVG/1.1/DTD/svg11.dtd">
<!-- Created with matplotlib (http://matplotlib.org/) -->
<svg height="432pt" version="1.1" viewBox="0 0 648 432" width="648pt" xmlns="http://www.w3.org/2000/svg" xmlns:xlink="http://www.w3.org/1999/xlink">
 <defs>
  <style type="text/css">
*{stroke-linecap:butt;stroke-linejoin:round;}
  </style>
 </defs>
 <g id="figure_1">
  <g id="patch_1">
   <path d="M 0 432 
L 648 432 
L 648 0 
L 0 0 
z
" style="fill:#ffffff;"/>
  </g>
  <g id="axes_1">
   <g id="patch_2">
    <path d="M 81 384.48 
L 583.2 384.48 
L 583.2 51.84 
L 81 51.84 
z
" style="fill:#ffffff;"/>
   </g>
   <g id="patch_3">
    <path clip-path="url(#pd84b29ef60)" d="M 102.86874 384.48 
L 126.299533 384.48 
L 126.299533 311.075122 
L 102.86874 311.075122 
z
" style="fill:#ff0000;"/>
   </g>
   <g id="patch_4">
    <path clip-path="url(#pd84b29ef60)" d="M 180.971384 384.48 
L 204.402177 384.48 
L 204.402177 67.68 
L 180.971384 67.68 
z
" style="fill:#008000;opacity:0.8;"/>
   </g>
   <g id="patch_5">
    <path clip-path="url(#pd84b29ef60)" d="M 259.074028 384.48 
L 282.504821 384.48 
L 282.504821 247.2 
L 259.074028 247.2 
z
" style="fill:#008000;opacity:0.8;"/>
   </g>
   <g id="patch_6">
    <path clip-path="url(#pd84b29ef60)" d="M 337.176672 384.48 
L 360.607465 384.48 
L 360.607465 289.182439 
L 337.176672 289.182439 
z
" style="fill:#008000;opacity:0.8;"/>
   </g>
   <g id="patch_7">
    <path clip-path="url(#pd84b29ef60)" d="M 415.279316 384.48 
L 438.710109 384.48 
L 438.710109 350.22439 
L 415.279316 350.22439 
z
" style="fill:#008000;opacity:0.8;"/>
   </g>
   <g id="patch_8">
    <path clip-path="url(#pd84b29ef60)" d="M 493.38196 384.48 
L 516.812753 384.48 
L 516.812753 367.223415 
L 493.38196 367.223415 
z
" style="fill:#008000;opacity:0.8;"/>
   </g>
   <g id="patch_9">
    <path clip-path="url(#pd84b29ef60)" d="M 204.402177 384.48 
L 227.83297 384.48 
L 227.83297 67.68 
L 204.402177 67.68 
z
" style="fill:#0000ff;opacity:0.8;"/>
   </g>
   <g id="patch_10">
    <path clip-path="url(#pd84b29ef60)" d="M 282.504821 384.48 
L 305.935614 384.48 
L 305.935614 247.2 
L 282.504821 247.2 
z
" style="fill:#0000ff;opacity:0.8;"/>
   </g>
   <g id="patch_11">
    <path clip-path="url(#pd84b29ef60)" d="M 360.607465 384.48 
L 384.038258 384.48 
L 384.038258 289.182439 
L 360.607465 289.182439 
z
" style="fill:#0000ff;opacity:0.8;"/>
   </g>
   <g id="patch_12">
    <path clip-path="url(#pd84b29ef60)" d="M 438.710109 384.48 
L 462.140902 384.48 
L 462.140902 350.22439 
L 438.710109 350.22439 
z
" style="fill:#0000ff;opacity:0.8;"/>
   </g>
   <g id="patch_13">
    <path clip-path="url(#pd84b29ef60)" d="M 516.812753 384.48 
L 540.243546 384.48 
L 540.243546 367.223415 
L 516.812753 367.223415 
z
" style="fill:#0000ff;opacity:0.8;"/>
   </g>
   <g id="matplotlib.axis_1">
    <g id="xtick_1">
     <g id="line2d_1">
      <defs>
       <path d="M 0 0 
L 0 3.5 
" id="md4687d749d" style="stroke:#000000;stroke-width:0.8;"/>
      </defs>
      <g>
       <use style="stroke:#000000;stroke-width:0.8;" x="114.584137" xlink:href="#md4687d749d" y="384.48"/>
      </g>
     </g>
     <g id="text_1">
      <!-- 人数 -->
      <defs>
       <path d="M 5.46875 -2.34375 
Q 20.703125 5.078125 29.296875 16.015625 
Q 37.890625 26.953125 41.203125 38.46875 
Q 44.53125 50 44.921875 59.953125 
Q 45.3125 69.921875 44.53125 80.859375 
Q 48.828125 80.46875 54.296875 80.078125 
Q 53.125 73.828125 53.125 67.1875 
Q 53.125 60.546875 53.90625 51.953125 
Q 54.6875 43.359375 65.03125 25.96875 
Q 75.390625 8.59375 95.3125 0 
Q 90.625 -4.6875 89.0625 -7.8125 
Q 61.71875 5.46875 50 40.234375 
Q 42.1875 9.375 12.109375 -8.984375 
Q 9.765625 -5.859375 5.46875 -2.34375 
z
" id="SimHei-4eba"/>
       <path d="M 70.703125 76.953125 
Q 69.921875 75 68.75 71.671875 
Q 67.578125 68.359375 65.234375 59.765625 
L 83.203125 59.765625 
Q 87.109375 59.765625 92.578125 60.15625 
L 92.578125 53.125 
Q 88.28125 53.515625 85.9375 53.515625 
Q 85.9375 47.265625 83.78125 33.78125 
Q 81.640625 20.3125 76.171875 10.546875 
Q 80.078125 5.859375 84.953125 2.140625 
Q 89.84375 -1.5625 94.140625 -3.125 
Q 89.453125 -6.640625 87.890625 -9.765625 
Q 83.203125 -7.03125 79.296875 -3.515625 
Q 75.390625 0 71.484375 5.078125 
Q 67.1875 0.390625 62.296875 -2.921875 
Q 57.421875 -6.25 50 -10.15625 
Q 48.046875 -6.640625 44.53125 -4.6875 
Q 50.390625 -2.34375 57.03125 1.953125 
Q 63.671875 6.25 67.1875 10.546875 
Q 64.453125 16.015625 61.90625 22.265625 
Q 59.375 28.515625 57.421875 38.671875 
Q 56.25 35.546875 53.515625 30.46875 
Q 50.78125 32.03125 46.875 33.59375 
Q 53.125 44.53125 57.03125 57.421875 
Q 60.9375 70.3125 62.109375 79.6875 
Q 66.796875 77.734375 70.703125 76.953125 
z
M 32.8125 35.15625 
Q 31.25 33.59375 29.296875 30.078125 
L 50.78125 30.078125 
Q 48.4375 20.3125 42.578125 10.546875 
Q 48.828125 8.203125 52.34375 6.25 
Q 50.390625 3.515625 48.828125 0.390625 
Q 45.3125 2.734375 38.28125 5.078125 
Q 30.46875 -3.515625 11.328125 -10.15625 
Q 9.375 -5.859375 6.25 -4.296875 
Q 24.609375 0 31.25 7.421875 
Q 20.3125 10.15625 13.28125 12.109375 
Q 15.625 15.625 19.53125 23.828125 
Q 15.625 23.828125 6.640625 23.4375 
L 6.640625 30.46875 
Q 14.0625 30.078125 21.875 30.078125 
Q 23.4375 33.59375 24.21875 37.890625 
Q 28.515625 36.328125 32.8125 35.15625 
z
M 27.734375 61.71875 
Q 27.734375 71.09375 27.34375 79.6875 
L 35.15625 79.6875 
Q 34.765625 71.484375 34.765625 61.71875 
Q 48.046875 61.71875 53.515625 62.109375 
L 53.515625 55.078125 
Q 48.046875 55.46875 34.765625 55.46875 
Q 34.765625 44.140625 35.15625 37.890625 
L 27.34375 37.890625 
Q 27.734375 43.359375 27.734375 51.5625 
Q 25.78125 48.4375 20.3125 43.546875 
Q 14.84375 38.671875 10.15625 35.9375 
Q 8.203125 39.453125 4.296875 41.015625 
Q 7.8125 42.1875 13.671875 46.484375 
Q 19.53125 50.78125 22.65625 55.46875 
Q 14.84375 55.46875 7.8125 55.078125 
L 7.8125 62.109375 
Q 14.453125 61.71875 27.734375 61.71875 
z
M 62.109375 49.609375 
Q 65.625 26.5625 71.875 17.578125 
Q 75.78125 26.5625 77.140625 35.734375 
Q 78.515625 44.921875 78.90625 53.515625 
L 63.671875 53.515625 
L 62.109375 49.609375 
z
M 22.65625 15.625 
Q 27.34375 14.453125 35.546875 12.5 
Q 38.671875 16.40625 41.40625 23.828125 
L 26.953125 23.828125 
Q 25 19.921875 22.65625 15.625 
z
M 51.953125 75.390625 
Q 50 72.265625 48.828125 69.53125 
Q 47.65625 66.796875 45.703125 62.890625 
Q 42.578125 64.453125 39.453125 65.234375 
Q 42.578125 70.3125 45.3125 78.125 
Q 49.21875 76.171875 51.953125 75.390625 
z
M 40.234375 52.734375 
Q 45.3125 47.65625 50 42.578125 
Q 47.65625 40.625 44.921875 37.890625 
Q 39.453125 44.53125 35.9375 48.4375 
Q 38.28125 50.390625 40.234375 52.734375 
z
M 14.453125 78.125 
Q 19.921875 72.65625 23.4375 67.1875 
L 17.578125 63.671875 
Q 14.84375 69.140625 9.375 73.828125 
Q 12.890625 76.171875 14.453125 78.125 
z
" id="SimHei-6570"/>
      </defs>
      <g transform="translate(102.584137 400.901875)scale(0.12 -0.12)">
       <use xlink:href="#SimHei-4eba"/>
       <use x="100" xlink:href="#SimHei-6570"/>
      </g>
     </g>
    </g>
    <g id="xtick_2">
     <g id="line2d_2">
      <g>
       <use style="stroke:#000000;stroke-width:0.8;" x="192.686781" xlink:href="#md4687d749d" y="384.48"/>
      </g>
     </g>
     <g id="text_2">
      <!-- label总数 -->
      <defs>
       <path d="M 28.515625 1.953125 
L 20.703125 1.953125 
L 20.703125 68.75 
L 28.515625 68.75 
z
" id="SimHei-6c"/>
       <path d="M 44.921875 1.953125 
L 35.546875 1.953125 
Q 34.765625 2.734375 34.375 4.09375 
Q 33.984375 5.46875 33.984375 7.421875 
Q 31.25 4.296875 27.34375 2.734375 
Q 23.4375 1.171875 19.140625 1.171875 
Q 12.890625 1.171875 8.59375 4.296875 
Q 4.296875 7.421875 4.296875 13.28125 
Q 4.296875 19.140625 8.203125 22.65625 
Q 12.109375 26.171875 20.3125 27.34375 
Q 25.78125 28.125 29.875 29.296875 
Q 33.984375 30.46875 33.984375 32.421875 
Q 33.984375 34.765625 32.21875 37.109375 
Q 30.46875 39.453125 24.609375 39.453125 
Q 19.921875 39.453125 17.765625 37.6875 
Q 15.625 35.9375 14.84375 32.8125 
L 6.25 32.8125 
Q 7.03125 39.0625 11.90625 42.765625 
Q 16.796875 46.484375 24.609375 46.484375 
Q 33.203125 46.484375 37.5 42.578125 
Q 41.796875 38.671875 41.796875 31.640625 
L 41.796875 10.15625 
Q 41.796875 7.8125 42.578125 5.859375 
Q 43.359375 3.90625 44.921875 1.953125 
z
M 33.984375 16.40625 
L 33.984375 24.21875 
Q 31.640625 23.4375 29.484375 22.84375 
Q 27.34375 22.265625 22.265625 21.484375 
Q 16.40625 20.703125 14.640625 18.75 
Q 12.890625 16.796875 12.890625 14.0625 
Q 12.890625 11.71875 14.640625 9.953125 
Q 16.40625 8.203125 19.921875 8.203125 
Q 23.4375 8.203125 27.53125 10.15625 
Q 31.640625 12.109375 33.984375 16.40625 
z
" id="SimHei-61"/>
       <path d="M 44.140625 23.828125 
Q 44.140625 12.5 38.671875 6.828125 
Q 33.203125 1.171875 25.390625 1.171875 
Q 21.09375 1.171875 17.96875 2.734375 
Q 14.84375 4.296875 12.5 7.8125 
L 12.5 1.953125 
L 4.6875 1.953125 
L 4.6875 68.75 
L 12.5 68.75 
L 12.5 39.84375 
Q 14.84375 43.359375 17.96875 45.109375 
Q 21.09375 46.875 25.390625 46.875 
Q 33.203125 46.875 38.671875 41.015625 
Q 44.140625 35.15625 44.140625 23.828125 
z
M 35.546875 23.828125 
Q 35.546875 31.25 32.609375 35.546875 
Q 29.6875 39.84375 23.828125 39.84375 
Q 19.140625 39.84375 15.8125 35.546875 
Q 12.5 31.25 12.5 23.828125 
Q 12.5 16.40625 15.8125 12.296875 
Q 19.140625 8.203125 23.828125 8.203125 
Q 29.6875 8.203125 32.609375 12.296875 
Q 35.546875 16.40625 35.546875 23.828125 
z
" id="SimHei-62"/>
       <path d="M 44.53125 16.796875 
Q 43.75 9.765625 38.28125 5.46875 
Q 32.8125 1.171875 25.390625 1.171875 
Q 16.015625 1.171875 9.953125 7.21875 
Q 3.90625 13.28125 3.90625 23.828125 
Q 3.90625 34.375 9.953125 40.421875 
Q 16.015625 46.484375 25.390625 46.484375 
Q 33.59375 46.484375 38.859375 41.203125 
Q 44.140625 35.9375 44.140625 23.828125 
L 12.5 23.828125 
Q 12.5 15.234375 16.203125 11.71875 
Q 19.921875 8.203125 25.390625 8.203125 
Q 29.6875 8.203125 32.421875 10.34375 
Q 35.15625 12.5 35.9375 16.796875 
z
M 35.15625 30.078125 
Q 34.375 35.546875 31.640625 37.6875 
Q 28.90625 39.84375 24.609375 39.84375 
Q 20.703125 39.84375 17.578125 37.6875 
Q 14.453125 35.546875 12.890625 30.078125 
z
" id="SimHei-65"/>
       <path d="M 71.09375 75.78125 
Q 68.359375 72.65625 62.890625 60.9375 
L 79.6875 60.9375 
Q 79.296875 53.515625 79.296875 46.09375 
Q 79.296875 39.0625 79.6875 31.640625 
L 18.359375 31.640625 
Q 18.75 39.84375 18.75 46.875 
Q 18.75 54.296875 18.359375 60.9375 
L 33.984375 60.9375 
Q 29.6875 67.96875 23.828125 74.21875 
Q 26.5625 75.78125 29.296875 78.90625 
Q 36.71875 71.09375 40.234375 65.625 
Q 37.5 63.671875 35.15625 60.9375 
L 55.46875 60.9375 
Q 60.546875 73.4375 61.71875 79.6875 
Q 67.1875 76.953125 71.09375 75.78125 
z
M 71.875 38.28125 
L 71.875 55.078125 
L 25.78125 55.078125 
L 25.78125 38.28125 
z
M 35.546875 22.65625 
Q 35.15625 16.40625 35.15625 10.546875 
Q 35.15625 4.6875 35.34375 1.75 
Q 35.546875 -1.171875 41.796875 -1.171875 
L 62.5 -1.171875 
Q 67.578125 -1.171875 68.75 8.59375 
Q 72.65625 6.25 76.953125 5.078125 
Q 74.609375 -3.125 71.28125 -5.265625 
Q 67.96875 -7.421875 62.5 -7.03125 
L 36.328125 -7.03125 
Q 28.90625 -7.03125 28.515625 -2.734375 
Q 28.125 1.5625 28.125 8.203125 
Q 28.125 15.234375 27.734375 22.65625 
L 35.546875 22.65625 
z
M 21.09375 20.703125 
Q 16.40625 4.6875 12.890625 -3.90625 
Q 9.765625 -2.34375 5.859375 -0.78125 
Q 10.546875 8.203125 14.0625 23.4375 
Q 17.1875 22.265625 21.09375 20.703125 
z
M 77.34375 24.609375 
Q 89.0625 12.890625 93.75 7.03125 
Q 91.015625 4.296875 87.890625 1.5625 
Q 83.984375 7.03125 71.875 19.921875 
Q 74.21875 21.484375 77.34375 24.609375 
z
M 52.34375 8.984375 
Q 46.484375 18.359375 41.796875 23.4375 
Q 44.140625 25.78125 46.875 28.125 
Q 50.390625 24.609375 58.59375 13.671875 
Q 55.078125 12.109375 52.34375 8.984375 
z
" id="SimHei-603b"/>
      </defs>
      <g transform="translate(165.686781 400.76125)scale(0.12 -0.12)">
       <use xlink:href="#SimHei-6c"/>
       <use x="50" xlink:href="#SimHei-61"/>
       <use x="100" xlink:href="#SimHei-62"/>
       <use x="150" xlink:href="#SimHei-65"/>
       <use x="200" xlink:href="#SimHei-6c"/>
       <use x="250" xlink:href="#SimHei-603b"/>
       <use x="350" xlink:href="#SimHei-6570"/>
      </g>
     </g>
    </g>
    <g id="xtick_3">
     <g id="line2d_3">
      <g>
       <use style="stroke:#000000;stroke-width:0.8;" x="270.789425" xlink:href="#md4687d749d" y="384.48"/>
      </g>
     </g>
     <g id="text_3">
      <!-- vessel -->
      <defs>
       <path d="M 44.921875 45.703125 
L 28.515625 1.171875 
L 19.921875 1.171875 
L 3.515625 45.703125 
L 11.71875 45.703125 
L 23.828125 11.71875 
L 24.609375 11.71875 
L 36.71875 45.703125 
z
" id="SimHei-76"/>
       <path d="M 42.96875 14.0625 
Q 42.96875 7.8125 38.078125 4.484375 
Q 33.203125 1.171875 25.78125 1.171875 
Q 16.40625 1.171875 11.328125 4.875 
Q 6.25 8.59375 6.25 15.625 
L 14.0625 15.625 
Q 14.0625 10.9375 17.375 9.375 
Q 20.703125 7.8125 25.390625 7.8125 
Q 30.078125 7.8125 32.421875 9.5625 
Q 34.765625 11.328125 34.765625 14.0625 
Q 34.765625 16.015625 32.8125 17.96875 
Q 30.859375 19.921875 23.046875 21.09375 
Q 14.0625 22.265625 10.734375 25.578125 
Q 7.421875 28.90625 7.421875 34.375 
Q 7.421875 39.0625 11.90625 42.765625 
Q 16.40625 46.484375 25 46.484375 
Q 32.8125 46.484375 37.296875 42.96875 
Q 41.796875 39.453125 41.796875 33.59375 
L 33.984375 33.59375 
Q 33.984375 37.109375 31.4375 38.46875 
Q 28.90625 39.84375 25 39.84375 
Q 19.921875 39.84375 17.765625 38.078125 
Q 15.625 36.328125 15.625 33.984375 
Q 15.625 31.25 17.578125 29.6875 
Q 19.53125 28.125 25.78125 27.34375 
Q 35.9375 25.78125 39.453125 22.453125 
Q 42.96875 19.140625 42.96875 14.0625 
z
" id="SimHei-73"/>
      </defs>
      <g transform="translate(252.789425 399.73)scale(0.12 -0.12)">
       <use xlink:href="#SimHei-76"/>
       <use x="50" xlink:href="#SimHei-65"/>
       <use x="100" xlink:href="#SimHei-73"/>
       <use x="150" xlink:href="#SimHei-73"/>
       <use x="200" xlink:href="#SimHei-65"/>
       <use x="250" xlink:href="#SimHei-6c"/>
      </g>
     </g>
    </g>
    <g id="xtick_4">
     <g id="line2d_4">
      <g>
       <use style="stroke:#000000;stroke-width:0.8;" x="348.892068" xlink:href="#md4687d749d" y="384.48"/>
      </g>
     </g>
     <g id="text_4">
      <!-- plaque -->
      <defs>
       <path d="M 44.140625 23.828125 
Q 44.140625 12.5 38.671875 6.640625 
Q 33.203125 0.78125 25.390625 0.78125 
Q 21.09375 0.78125 17.96875 2.53125 
Q 14.84375 4.296875 12.5 7.8125 
L 12.5 -12.5 
L 4.6875 -12.5 
L 4.6875 45.703125 
L 12.5 45.703125 
L 12.5 39.84375 
Q 14.84375 43.359375 17.96875 44.921875 
Q 21.09375 46.484375 25.390625 46.484375 
Q 33.203125 46.484375 38.671875 40.8125 
Q 44.140625 35.15625 44.140625 23.828125 
z
M 35.546875 23.828125 
Q 35.546875 31.25 32.609375 35.34375 
Q 29.6875 39.453125 23.828125 39.453125 
Q 19.140625 39.453125 15.8125 35.34375 
Q 12.5 31.25 12.5 23.828125 
Q 12.5 16.40625 15.8125 12.109375 
Q 19.140625 7.8125 23.828125 7.8125 
Q 29.6875 7.8125 32.609375 12.109375 
Q 35.546875 16.40625 35.546875 23.828125 
z
" id="SimHei-70"/>
       <path d="M 42.96875 -12.5 
L 35.15625 -12.5 
L 35.15625 7.8125 
Q 32.8125 4.296875 29.6875 2.53125 
Q 26.5625 0.78125 22.265625 0.78125 
Q 14.453125 0.78125 8.984375 6.640625 
Q 3.515625 12.5 3.515625 23.828125 
Q 3.515625 35.15625 8.984375 40.8125 
Q 14.453125 46.484375 22.265625 46.484375 
Q 26.5625 46.484375 29.6875 44.921875 
Q 32.8125 43.359375 35.15625 39.84375 
L 35.15625 45.703125 
L 42.96875 45.703125 
z
M 35.15625 23.828125 
Q 35.15625 31.25 31.828125 35.34375 
Q 28.515625 39.453125 23.828125 39.453125 
Q 17.96875 39.453125 15.03125 35.34375 
Q 12.109375 31.25 12.109375 23.828125 
Q 12.109375 16.40625 15.03125 12.109375 
Q 17.96875 7.8125 23.828125 7.8125 
Q 28.515625 7.8125 31.828125 12.109375 
Q 35.15625 16.40625 35.15625 23.828125 
z
" id="SimHei-71"/>
       <path d="M 43.75 1.953125 
L 35.9375 1.953125 
L 35.9375 10.15625 
Q 32.8125 5.859375 29.09375 3.515625 
Q 25.390625 1.171875 19.53125 1.171875 
Q 12.5 1.171875 8.984375 5.078125 
Q 5.46875 8.984375 5.46875 14.84375 
L 5.46875 45.703125 
L 13.28125 45.703125 
L 13.28125 17.578125 
Q 13.28125 12.890625 15.625 10.15625 
Q 17.96875 7.421875 21.875 7.421875 
Q 26.953125 7.421875 31.4375 12.6875 
Q 35.9375 17.96875 35.9375 25.78125 
L 35.9375 45.703125 
L 43.75 45.703125 
z
" id="SimHei-75"/>
      </defs>
      <g transform="translate(330.892068 399.73)scale(0.12 -0.12)">
       <use xlink:href="#SimHei-70"/>
       <use x="50" xlink:href="#SimHei-6c"/>
       <use x="100" xlink:href="#SimHei-61"/>
       <use x="150" xlink:href="#SimHei-71"/>
       <use x="200" xlink:href="#SimHei-75"/>
       <use x="250" xlink:href="#SimHei-65"/>
      </g>
     </g>
    </g>
    <g id="xtick_5">
     <g id="line2d_5">
      <g>
       <use style="stroke:#000000;stroke-width:0.8;" x="426.994712" xlink:href="#md4687d749d" y="384.48"/>
      </g>
     </g>
     <g id="text_5">
      <!-- sclerosis -->
      <defs>
       <path d="M 44.53125 19.53125 
Q 44.53125 11.328125 38.859375 6.25 
Q 33.203125 1.171875 24.609375 1.171875 
Q 16.015625 1.171875 9.765625 7.21875 
Q 3.515625 13.28125 3.515625 23.828125 
Q 3.515625 34.375 9.765625 40.421875 
Q 16.015625 46.484375 24.609375 46.484375 
Q 33.203125 46.484375 38.28125 41.984375 
Q 43.359375 37.5 43.359375 31.25 
L 34.765625 31.25 
Q 34.375 35.9375 31.4375 37.6875 
Q 28.515625 39.453125 24.609375 39.453125 
Q 19.921875 39.453125 16.015625 35.734375 
Q 12.109375 32.03125 12.109375 23.828125 
Q 12.109375 15.625 16.015625 11.90625 
Q 19.921875 8.203125 24.609375 8.203125 
Q 29.6875 8.203125 32.8125 10.9375 
Q 35.9375 13.671875 35.9375 19.53125 
z
" id="SimHei-63"/>
       <path d="M 39.0625 37.890625 
Q 31.640625 39.0625 26.5625 35.734375 
Q 21.484375 32.421875 17.96875 24.21875 
L 17.96875 1.953125 
L 10.15625 1.953125 
L 10.15625 45.703125 
L 17.96875 45.703125 
L 17.96875 34.375 
Q 21.484375 40.625 26.75 43.546875 
Q 32.03125 46.484375 39.0625 46.484375 
z
" id="SimHei-72"/>
       <path d="M 45.703125 23.828125 
Q 45.703125 13.671875 39.453125 7.421875 
Q 33.203125 1.171875 24.609375 1.171875 
Q 16.015625 1.171875 9.765625 7.421875 
Q 3.515625 13.671875 3.515625 23.828125 
Q 3.515625 33.984375 9.765625 40.234375 
Q 16.015625 46.484375 24.609375 46.484375 
Q 33.203125 46.484375 39.453125 40.234375 
Q 45.703125 33.984375 45.703125 23.828125 
z
M 37.109375 23.828125 
Q 37.109375 31.640625 33.203125 35.546875 
Q 29.296875 39.453125 24.609375 39.453125 
Q 19.921875 39.453125 16.015625 35.546875 
Q 12.109375 31.640625 12.109375 23.828125 
Q 12.109375 16.015625 16.015625 12.109375 
Q 19.921875 8.203125 24.609375 8.203125 
Q 29.296875 8.203125 33.203125 12.109375 
Q 37.109375 16.015625 37.109375 23.828125 
z
" id="SimHei-6f"/>
       <path d="M 28.125 58.203125 
L 20.3125 58.203125 
L 20.3125 68.359375 
L 28.125 68.359375 
z
M 28.125 1.953125 
L 20.3125 1.953125 
L 20.3125 45.703125 
L 28.125 45.703125 
z
" id="SimHei-69"/>
      </defs>
      <g transform="translate(399.994712 399.73)scale(0.12 -0.12)">
       <use xlink:href="#SimHei-73"/>
       <use x="50" xlink:href="#SimHei-63"/>
       <use x="100" xlink:href="#SimHei-6c"/>
       <use x="150" xlink:href="#SimHei-65"/>
       <use x="200" xlink:href="#SimHei-72"/>
       <use x="250" xlink:href="#SimHei-6f"/>
       <use x="300" xlink:href="#SimHei-73"/>
       <use x="350" xlink:href="#SimHei-69"/>
       <use x="400" xlink:href="#SimHei-73"/>
      </g>
     </g>
    </g>
    <g id="xtick_6">
     <g id="line2d_6">
      <g>
       <use style="stroke:#000000;stroke-width:0.8;" x="505.097356" xlink:href="#md4687d749d" y="384.48"/>
      </g>
     </g>
     <g id="text_6">
      <!-- normal -->
      <defs>
       <path d="M 43.75 1.953125 
L 35.9375 1.953125 
L 35.9375 30.078125 
Q 35.9375 34.765625 33.59375 37.5 
Q 31.25 40.234375 27.34375 40.234375 
Q 22.265625 40.234375 17.765625 34.953125 
Q 13.28125 29.6875 13.28125 21.875 
L 13.28125 1.953125 
L 5.46875 1.953125 
L 5.46875 45.703125 
L 13.28125 45.703125 
L 13.28125 37.5 
Q 16.40625 41.796875 20.109375 44.140625 
Q 23.828125 46.484375 29.6875 46.484375 
Q 36.71875 46.484375 40.234375 42.578125 
Q 43.75 38.671875 43.75 32.8125 
z
" id="SimHei-6e"/>
       <path d="M 47.65625 1.953125 
L 39.84375 1.953125 
L 39.84375 33.59375 
Q 39.84375 35.9375 39.0625 37.5 
Q 38.28125 39.0625 35.9375 39.0625 
Q 33.203125 39.0625 30.859375 36.125 
Q 28.515625 33.203125 28.515625 28.515625 
L 28.515625 1.953125 
L 20.703125 1.953125 
L 20.703125 33.59375 
Q 20.703125 35.9375 19.921875 37.5 
Q 19.140625 39.0625 16.796875 39.0625 
Q 14.0625 39.0625 11.71875 36.125 
Q 9.375 33.203125 9.375 28.515625 
L 9.375 1.953125 
L 1.5625 1.953125 
L 1.5625 45.703125 
L 9.375 45.703125 
L 9.375 39.84375 
Q 11.328125 42.96875 14.0625 44.71875 
Q 16.796875 46.484375 19.921875 46.484375 
Q 23.046875 46.484375 25.1875 44.71875 
Q 27.34375 42.96875 28.125 39.84375 
Q 30.078125 42.96875 32.609375 44.71875 
Q 35.15625 46.484375 38.28125 46.484375 
Q 42.96875 46.484375 45.3125 43.9375 
Q 47.65625 41.40625 47.65625 36.71875 
z
" id="SimHei-6d"/>
      </defs>
      <g transform="translate(487.097356 399.73)scale(0.12 -0.12)">
       <use xlink:href="#SimHei-6e"/>
       <use x="50" xlink:href="#SimHei-6f"/>
       <use x="100" xlink:href="#SimHei-72"/>
       <use x="150" xlink:href="#SimHei-6d"/>
       <use x="200" xlink:href="#SimHei-61"/>
       <use x="250" xlink:href="#SimHei-6c"/>
      </g>
     </g>
    </g>
    <g id="xtick_7">
     <g id="line2d_7">
      <g>
       <use style="stroke:#000000;stroke-width:0.8;" x="583.2" xlink:href="#md4687d749d" y="384.48"/>
      </g>
     </g>
    </g>
   </g>
   <g id="matplotlib.axis_2">
    <g id="ytick_1">
     <g id="line2d_8">
      <defs>
       <path d="M 0 0 
L -3.5 0 
" id="m2a124cef84" style="stroke:#000000;stroke-width:0.8;"/>
      </defs>
      <g>
       <use style="stroke:#000000;stroke-width:0.8;" x="81" xlink:href="#m2a124cef84" y="384.48"/>
      </g>
     </g>
     <g id="text_7">
      <!-- 0 -->
      <defs>
       <path d="M 3.125 29.296875 
Q 3.90625 50 6.4375 56.046875 
Q 8.984375 62.109375 13.671875 66.015625 
Q 18.359375 69.921875 25.1875 69.921875 
Q 32.03125 69.921875 37.109375 64.25 
Q 42.1875 58.59375 43.75 50 
Q 45.3125 41.40625 44.71875 30.265625 
Q 44.140625 19.140625 40.8125 12.109375 
Q 37.5 5.078125 30.859375 2.34375 
Q 24.21875 -0.390625 17.578125 2.921875 
Q 10.9375 6.25 8.203125 11.71875 
Q 5.46875 17.1875 4.296875 23.234375 
Q 3.125 29.296875 3.90625 50 
z
M 12.890625 52.734375 
Q 10.546875 31.25 12.5 22.84375 
Q 14.453125 14.453125 18.9375 10.9375 
Q 23.4375 7.421875 28.125 9.5625 
Q 32.8125 11.71875 34.953125 18.15625 
Q 37.109375 24.609375 37.109375 32.21875 
Q 37.109375 39.84375 36.515625 46.09375 
Q 35.9375 52.34375 33 57.421875 
Q 30.078125 62.5 25.1875 62.6875 
Q 20.3125 62.890625 16.59375 57.8125 
Q 12.890625 52.734375 10.546875 31.25 
z
" id="SimHei-30"/>
      </defs>
      <g transform="translate(69 387.9175)scale(0.1 -0.1)">
       <use xlink:href="#SimHei-30"/>
      </g>
     </g>
    </g>
    <g id="ytick_2">
     <g id="line2d_9">
      <g>
       <use style="stroke:#000000;stroke-width:0.8;" x="81" xlink:href="#m2a124cef84" y="332.967805"/>
      </g>
     </g>
     <g id="text_8">
      <!-- 200 -->
      <defs>
       <path d="M 4.6875 3.90625 
Q 5.078125 9.765625 10.15625 14.453125 
Q 15.234375 19.140625 23.046875 29.09375 
Q 30.859375 39.0625 33.203125 44.53125 
Q 35.546875 50 34.953125 53.90625 
Q 34.375 57.8125 31.25 60.34375 
Q 28.125 62.890625 24.015625 62.5 
Q 19.921875 62.109375 16.203125 59.375 
Q 12.5 56.640625 10.546875 51.171875 
L 3.125 52.34375 
Q 6.25 61.328125 11.125 65.421875 
Q 16.015625 69.53125 22.65625 69.921875 
Q 26.5625 70.3125 29.6875 69.71875 
Q 32.8125 69.140625 36.125 66.984375 
Q 39.453125 64.84375 41.59375 60.546875 
Q 43.75 56.25 43.15625 50.1875 
Q 42.578125 44.140625 37.109375 35.734375 
Q 31.640625 27.34375 16.015625 9.375 
L 44.140625 9.375 
L 44.140625 2.34375 
L 4.6875 2.34375 
z
" id="SimHei-32"/>
      </defs>
      <g transform="translate(59 336.405305)scale(0.1 -0.1)">
       <use xlink:href="#SimHei-32"/>
       <use x="50" xlink:href="#SimHei-30"/>
       <use x="100" xlink:href="#SimHei-30"/>
      </g>
     </g>
    </g>
    <g id="ytick_3">
     <g id="line2d_10">
      <g>
       <use style="stroke:#000000;stroke-width:0.8;" x="81" xlink:href="#m2a124cef84" y="281.45561"/>
      </g>
     </g>
     <g id="text_9">
      <!-- 400 -->
      <defs>
       <path d="M 31.25 17.1875 
L 1.171875 17.1875 
L 1.171875 23.828125 
L 32.8125 69.53125 
L 38.671875 69.53125 
L 38.671875 23.828125 
L 48.046875 23.828125 
L 48.046875 17.1875 
L 38.671875 17.1875 
L 38.671875 2.34375 
L 31.25 2.34375 
z
M 31.25 23.828125 
L 31.25 54.6875 
L 9.375 23.828125 
z
" id="SimHei-34"/>
      </defs>
      <g transform="translate(59 284.89311)scale(0.1 -0.1)">
       <use xlink:href="#SimHei-34"/>
       <use x="50" xlink:href="#SimHei-30"/>
       <use x="100" xlink:href="#SimHei-30"/>
      </g>
     </g>
    </g>
    <g id="ytick_4">
     <g id="line2d_11">
      <g>
       <use style="stroke:#000000;stroke-width:0.8;" x="81" xlink:href="#m2a124cef84" y="229.943415"/>
      </g>
     </g>
     <g id="text_10">
      <!-- 600 -->
      <defs>
       <path d="M 3.515625 19.53125 
Q 4.296875 30.859375 6.046875 34.765625 
Q 7.8125 38.671875 11.328125 44.53125 
L 27.34375 69.53125 
L 36.328125 69.53125 
L 19.921875 43.75 
Q 30.46875 46.484375 36.71875 42.96875 
Q 42.96875 39.453125 45.109375 34.953125 
Q 47.265625 30.46875 47.453125 25.1875 
Q 47.65625 19.921875 45.890625 14.84375 
Q 44.140625 9.765625 39.640625 5.65625 
Q 35.15625 1.5625 27.140625 1.171875 
Q 19.140625 0.78125 13.46875 4.09375 
Q 7.8125 7.421875 5.65625 13.46875 
Q 3.515625 19.53125 4.296875 30.859375 
z
M 12.5 16.015625 
Q 19.53125 8.59375 25.390625 8.203125 
Q 31.25 7.8125 35.15625 12.109375 
Q 39.0625 16.40625 39.0625 24.609375 
Q 39.0625 32.8125 34.171875 35.9375 
Q 29.296875 39.0625 23.234375 38.28125 
Q 17.1875 37.5 14.453125 32.421875 
Q 11.71875 27.34375 12.109375 21.671875 
Q 12.5 16.015625 19.53125 8.59375 
z
" id="SimHei-36"/>
      </defs>
      <g transform="translate(59 233.380915)scale(0.1 -0.1)">
       <use xlink:href="#SimHei-36"/>
       <use x="50" xlink:href="#SimHei-30"/>
       <use x="100" xlink:href="#SimHei-30"/>
      </g>
     </g>
    </g>
    <g id="ytick_5">
     <g id="line2d_12">
      <g>
       <use style="stroke:#000000;stroke-width:0.8;" x="81" xlink:href="#m2a124cef84" y="178.43122"/>
      </g>
     </g>
     <g id="text_11">
      <!-- 800 -->
      <defs>
       <path d="M 2.734375 16.796875 
Q 2.734375 26.171875 5.078125 30.65625 
Q 7.421875 35.15625 12.890625 37.890625 
Q 8.203125 40.625 6.640625 43.9375 
Q 5.078125 47.265625 4.875 51.5625 
Q 4.6875 55.859375 6.046875 58.984375 
Q 7.421875 62.109375 10.15625 64.84375 
Q 12.890625 67.578125 16.203125 68.546875 
Q 19.53125 69.53125 23.4375 69.53125 
Q 27.34375 69.53125 30.46875 68.75 
Q 33.59375 67.96875 37.109375 65.421875 
Q 40.625 62.890625 42.1875 58.203125 
Q 43.75 53.515625 41.984375 47.265625 
Q 40.234375 41.015625 32.8125 37.5 
Q 39.453125 35.546875 42.1875 31.4375 
Q 44.921875 27.34375 44.921875 21.484375 
Q 44.921875 15.625 43.15625 12.109375 
Q 41.40625 8.59375 39.25 6.25 
Q 37.109375 3.90625 33.390625 2.53125 
Q 29.6875 1.171875 24.015625 1.171875 
Q 18.359375 1.171875 14.25 2.53125 
Q 10.15625 3.90625 7.421875 6.640625 
Q 4.6875 9.375 3.703125 13.078125 
Q 2.734375 16.796875 2.734375 26.171875 
z
M 10.9375 26.5625 
Q 10.546875 17.1875 12.296875 13.671875 
Q 14.0625 10.15625 18.75 9.171875 
Q 23.4375 8.203125 28.515625 9.375 
Q 33.59375 10.546875 35.546875 14.84375 
Q 37.5 19.140625 36.90625 23.4375 
Q 36.328125 27.734375 32.03125 30.65625 
Q 27.734375 33.59375 22.65625 33.203125 
Q 17.578125 32.8125 14.25 29.6875 
Q 10.9375 26.5625 10.546875 17.1875 
z
M 12.109375 56.25 
Q 12.109375 48.4375 14.84375 44.921875 
Q 17.578125 41.40625 23.4375 41.40625 
Q 29.296875 41.40625 32.21875 44.921875 
Q 35.15625 48.4375 34.953125 53.3125 
Q 34.765625 58.203125 31.4375 60.546875 
Q 28.125 62.890625 22.453125 62.5 
Q 16.796875 62.109375 14.453125 59.171875 
Q 12.109375 56.25 12.109375 48.4375 
z
" id="SimHei-38"/>
      </defs>
      <g transform="translate(59 181.86872)scale(0.1 -0.1)">
       <use xlink:href="#SimHei-38"/>
       <use x="50" xlink:href="#SimHei-30"/>
       <use x="100" xlink:href="#SimHei-30"/>
      </g>
     </g>
    </g>
    <g id="ytick_6">
     <g id="line2d_13">
      <g>
       <use style="stroke:#000000;stroke-width:0.8;" x="81" xlink:href="#m2a124cef84" y="126.919024"/>
      </g>
     </g>
     <g id="text_12">
      <!-- 1000 -->
      <defs>
       <path d="M 21.875 56.25 
Q 16.796875 51.171875 8.984375 46.484375 
L 8.984375 53.90625 
Q 18.75 60.546875 25 69.53125 
L 29.6875 69.53125 
L 29.6875 2.34375 
L 21.875 2.34375 
z
" id="SimHei-31"/>
      </defs>
      <g transform="translate(54 130.356524)scale(0.1 -0.1)">
       <use xlink:href="#SimHei-31"/>
       <use x="50" xlink:href="#SimHei-30"/>
       <use x="100" xlink:href="#SimHei-30"/>
       <use x="150" xlink:href="#SimHei-30"/>
      </g>
     </g>
    </g>
    <g id="ytick_7">
     <g id="line2d_14">
      <g>
       <use style="stroke:#000000;stroke-width:0.8;" x="81" xlink:href="#m2a124cef84" y="75.406829"/>
      </g>
     </g>
     <g id="text_13">
      <!-- 1200 -->
      <g transform="translate(54 78.844329)scale(0.1 -0.1)">
       <use xlink:href="#SimHei-31"/>
       <use x="50" xlink:href="#SimHei-32"/>
       <use x="100" xlink:href="#SimHei-30"/>
       <use x="150" xlink:href="#SimHei-30"/>
      </g>
     </g>
    </g>
    <g id="text_14">
     <!-- Number of samples -->
     <defs>
      <path d="M 44.53125 1.953125 
L 34.765625 1.953125 
L 13.28125 50.390625 
L 12.890625 50.390625 
L 12.890625 1.953125 
L 3.90625 1.953125 
L 3.90625 68.75 
L 13.671875 68.75 
L 35.15625 20.3125 
L 35.546875 20.3125 
L 35.546875 68.75 
L 44.53125 68.75 
z
" id="SimHei-4e"/>
      <path id="SimHei-20"/>
      <path d="M 44.53125 59.765625 
Q 42.578125 60.9375 39.84375 61.71875 
Q 37.109375 62.5 32.8125 62.5 
Q 28.515625 62.5 26.953125 60.34375 
Q 25.390625 58.203125 25.390625 55.078125 
L 25.390625 45.703125 
L 41.40625 45.703125 
L 41.40625 39.453125 
L 25.390625 39.453125 
L 25.390625 1.953125 
L 17.578125 1.953125 
L 17.578125 39.453125 
L 4.296875 39.453125 
L 4.296875 45.703125 
L 17.578125 45.703125 
L 17.578125 54.6875 
Q 17.578125 61.71875 21.875 65.625 
Q 26.171875 69.53125 33.203125 69.53125 
Q 37.5 69.53125 40.03125 68.9375 
Q 42.578125 68.359375 44.53125 67.578125 
z
" id="SimHei-66"/>
     </defs>
     <g transform="translate(48.5 269.16)rotate(-90)scale(0.12 -0.12)">
      <use xlink:href="#SimHei-4e"/>
      <use x="50" xlink:href="#SimHei-75"/>
      <use x="100" xlink:href="#SimHei-6d"/>
      <use x="150" xlink:href="#SimHei-62"/>
      <use x="200" xlink:href="#SimHei-65"/>
      <use x="250" xlink:href="#SimHei-72"/>
      <use x="300" xlink:href="#SimHei-20"/>
      <use x="350" xlink:href="#SimHei-6f"/>
      <use x="400" xlink:href="#SimHei-66"/>
      <use x="450" xlink:href="#SimHei-20"/>
      <use x="500" xlink:href="#SimHei-73"/>
      <use x="550" xlink:href="#SimHei-61"/>
      <use x="600" xlink:href="#SimHei-6d"/>
      <use x="650" xlink:href="#SimHei-70"/>
      <use x="700" xlink:href="#SimHei-6c"/>
      <use x="750" xlink:href="#SimHei-65"/>
      <use x="800" xlink:href="#SimHei-73"/>
     </g>
    </g>
   </g>
   <g id="patch_14">
    <path d="M 81 384.48 
L 81 51.84 
" style="fill:none;stroke:#000000;stroke-linecap:square;stroke-linejoin:miter;stroke-width:0.8;"/>
   </g>
   <g id="patch_15">
    <path d="M 583.2 384.48 
L 583.2 51.84 
" style="fill:none;stroke:#000000;stroke-linecap:square;stroke-linejoin:miter;stroke-width:0.8;"/>
   </g>
   <g id="patch_16">
    <path d="M 81 384.48 
L 583.2 384.48 
" style="fill:none;stroke:#000000;stroke-linecap:square;stroke-linejoin:miter;stroke-width:0.8;"/>
   </g>
   <g id="patch_17">
    <path d="M 81 51.84 
L 583.2 51.84 
" style="fill:none;stroke:#000000;stroke-linecap:square;stroke-linejoin:miter;stroke-width:0.8;"/>
   </g>
   <g id="text_15">
    <!-- 285 -->
    <defs>
     <path d="M 8.59375 20.703125 
Q 11.328125 10.15625 17.96875 8.984375 
Q 24.609375 7.8125 28.703125 10.34375 
Q 32.8125 12.890625 34.5625 16.984375 
Q 36.328125 21.09375 36.125 26.171875 
Q 35.9375 31.25 33.390625 34.765625 
Q 30.859375 38.28125 26.953125 39.453125 
Q 23.046875 40.625 18.15625 39.453125 
Q 13.28125 38.28125 10.15625 33.984375 
L 3.515625 34.765625 
Q 4.296875 37.109375 10.9375 68.359375 
L 41.796875 68.359375 
L 41.796875 61.328125 
L 16.796875 61.328125 
Q 14.84375 50.78125 12.890625 44.53125 
Q 18.75 47.265625 23.828125 47.0625 
Q 28.90625 46.875 33.59375 44.71875 
Q 38.28125 42.578125 40.421875 38.859375 
Q 42.578125 35.15625 43.546875 31.4375 
Q 44.53125 27.734375 44.328125 23.4375 
Q 44.140625 19.140625 42.578125 14.640625 
Q 41.015625 10.15625 37.890625 7.21875 
Q 34.765625 4.296875 30.265625 2.53125 
Q 25.78125 0.78125 19.921875 1.171875 
Q 14.0625 1.5625 8.78125 5.46875 
Q 3.515625 9.375 1.5625 18.75 
z
" id="SimHei-35"/>
    </defs>
    <g transform="translate(105.584137 309.497854)scale(0.12 -0.12)">
     <use xlink:href="#SimHei-32"/>
     <use x="50" xlink:href="#SimHei-38"/>
     <use x="100" xlink:href="#SimHei-35"/>
    </g>
   </g>
   <g id="text_16">
    <!-- 1230 -->
    <defs>
     <path d="M 3.90625 19.140625 
L 10.9375 20.3125 
Q 12.5 15.234375 16.015625 11.90625 
Q 19.53125 8.59375 24.796875 8.78125 
Q 30.078125 8.984375 33.203125 13.078125 
Q 36.328125 17.1875 35.9375 22.453125 
Q 35.546875 27.734375 31.828125 30.65625 
Q 28.125 33.59375 19.921875 34.765625 
L 19.921875 39.84375 
Q 28.125 40.625 31.828125 44.140625 
Q 35.546875 47.65625 35.15625 53.3125 
Q 34.765625 58.984375 30.078125 61.515625 
Q 25.390625 64.0625 20.109375 62.109375 
Q 14.84375 60.15625 11.71875 51.171875 
L 4.6875 52.34375 
Q 7.03125 59.375 11.125 64.0625 
Q 15.234375 68.75 22.265625 69.53125 
Q 29.296875 70.3125 34.5625 67.765625 
Q 39.84375 65.234375 41.984375 59.953125 
Q 44.140625 54.6875 42.578125 48.4375 
Q 41.015625 42.1875 33.59375 37.5 
Q 39.0625 35.15625 41.984375 30.46875 
Q 44.921875 25.78125 43.9375 18.15625 
Q 42.96875 10.546875 37.109375 5.859375 
Q 31.25 1.171875 23.828125 1.359375 
Q 16.40625 1.5625 10.9375 6.046875 
Q 5.46875 10.546875 3.90625 19.140625 
z
" id="SimHei-33"/>
    </defs>
    <g transform="translate(192.686781 66.102732)scale(0.12 -0.12)">
     <use xlink:href="#SimHei-31"/>
     <use x="50" xlink:href="#SimHei-32"/>
     <use x="100" xlink:href="#SimHei-33"/>
     <use x="150" xlink:href="#SimHei-30"/>
    </g>
   </g>
   <g id="text_17">
    <!-- 533 -->
    <g transform="translate(270.789425 245.622732)scale(0.12 -0.12)">
     <use xlink:href="#SimHei-35"/>
     <use x="50" xlink:href="#SimHei-33"/>
     <use x="100" xlink:href="#SimHei-33"/>
    </g>
   </g>
   <g id="text_18">
    <!-- 370 -->
    <defs>
     <path d="M 13.28125 2.34375 
Q 20.3125 32.03125 37.890625 61.328125 
L 4.296875 61.328125 
L 4.296875 68.359375 
L 46.09375 68.359375 
L 46.09375 61.71875 
Q 27.734375 32.03125 21.875 2.34375 
L 13.28125 2.34375 
z
" id="SimHei-37"/>
    </defs>
    <g transform="translate(348.892068 287.605171)scale(0.12 -0.12)">
     <use xlink:href="#SimHei-33"/>
     <use x="50" xlink:href="#SimHei-37"/>
     <use x="100" xlink:href="#SimHei-30"/>
    </g>
   </g>
   <g id="text_19">
    <!-- 133 -->
    <g transform="translate(426.994712 348.647122)scale(0.12 -0.12)">
     <use xlink:href="#SimHei-31"/>
     <use x="50" xlink:href="#SimHei-33"/>
     <use x="100" xlink:href="#SimHei-33"/>
    </g>
   </g>
   <g id="text_20">
    <!-- 67 -->
    <g transform="translate(505.097356 365.646146)scale(0.12 -0.12)">
     <use xlink:href="#SimHei-36"/>
     <use x="50" xlink:href="#SimHei-37"/>
    </g>
   </g>
   <g id="text_21">
    <!-- 颈动脉超声样本统计 -->
    <defs>
     <path d="M 81.25 75 
Q 87.890625 75 94.53125 75.390625 
L 94.53125 68.75 
Q 87.890625 69.140625 80.859375 69.140625 
L 71.09375 69.140625 
Q 69.921875 65.625 67.96875 57.03125 
L 89.453125 57.03125 
Q 89.0625 50.78125 89.0625 43.75 
L 89.0625 27.34375 
Q 89.0625 21.09375 89.453125 13.28125 
L 81.640625 13.28125 
L 81.640625 51.171875 
L 55.859375 51.171875 
L 55.859375 13.28125 
L 48.4375 13.28125 
Q 48.828125 21.875 48.828125 28.125 
L 48.828125 43.359375 
Q 48.828125 51.171875 48.4375 57.03125 
L 60.9375 57.03125 
Q 62.5 64.453125 63.28125 69.140625 
L 58.59375 69.140625 
Q 52.34375 69.140625 45.3125 68.75 
L 45.3125 75.390625 
Q 52.34375 75 58.59375 75 
z
M 42.578125 75.390625 
Q 39.0625 67.578125 32.421875 58.59375 
Q 39.453125 53.515625 46.875 46.875 
Q 43.75 44.140625 41.40625 41.015625 
Q 33.203125 50 28.515625 53.125 
Q 26.171875 50.78125 22.0625 46.875 
Q 17.96875 42.96875 10.9375 37.5 
Q 8.203125 40.625 4.6875 42.96875 
Q 14.84375 48.4375 21.671875 55.859375 
Q 28.515625 63.28125 31.640625 69.53125 
L 19.921875 69.53125 
Q 14.0625 69.53125 7.421875 69.140625 
L 7.421875 75.78125 
Q 14.0625 75.390625 19.921875 75.390625 
z
M 33.203125 34.375 
Q 37.890625 34.375 43.359375 34.765625 
L 43.359375 27.734375 
Q 35.9375 28.125 29.6875 28.125 
L 29.6875 8.203125 
Q 32.8125 8.59375 36.515625 9.375 
Q 40.234375 10.15625 44.921875 10.9375 
Q 44.53125 8.203125 44.53125 4.6875 
Q 41.015625 3.90625 35.546875 2.734375 
Q 30.078125 1.5625 24.21875 0.1875 
Q 18.359375 -1.171875 15.234375 -2.34375 
Q 12.109375 -3.515625 10.15625 -3.90625 
Q 8.984375 0 7.03125 4.296875 
Q 11.328125 4.6875 23.046875 6.640625 
L 23.046875 28.125 
Q 17.1875 28.125 10.546875 27.734375 
L 10.546875 34.765625 
Q 17.578125 34.375 21.875 34.375 
z
M 73.828125 43.359375 
Q 72.265625 37.5 72.265625 31.25 
Q 72.265625 25.390625 70.703125 17.96875 
Q 69.140625 10.546875 62.890625 3.90625 
Q 56.640625 -2.734375 44.53125 -9.375 
Q 42.96875 -5.859375 39.453125 -2.34375 
Q 49.609375 1.171875 54.6875 5.65625 
Q 59.765625 10.15625 62.296875 15.8125 
Q 64.84375 21.484375 65.03125 29.09375 
Q 65.234375 36.71875 64.84375 44.53125 
Q 69.921875 43.359375 73.828125 43.359375 
z
M 77.34375 12.109375 
Q 80.859375 9.765625 85.734375 5.859375 
Q 90.625 1.953125 95.703125 -2.34375 
Q 92.578125 -4.6875 90.234375 -8.203125 
Q 85.15625 -3.125 81.046875 0.390625 
Q 76.953125 3.90625 73.046875 6.640625 
Q 75.78125 9.375 77.34375 12.109375 
z
" id="SimHei-9888"/>
     <path d="M 64.453125 80.46875 
Q 69.140625 79.296875 73.4375 79.296875 
Q 72.65625 75.390625 72.453125 70.5 
Q 72.265625 65.625 72.265625 58.59375 
L 94.140625 58.59375 
Q 93.75 53.515625 93.359375 47.265625 
L 91.40625 2.734375 
Q 90.234375 -5.078125 84.953125 -6.828125 
Q 79.6875 -8.59375 73.046875 -9.375 
Q 71.875 -4.6875 69.140625 -0.78125 
Q 77.734375 -1.171875 80.859375 0.1875 
Q 83.984375 1.5625 83.984375 5.46875 
L 86.328125 51.953125 
L 72.265625 51.953125 
Q 71.484375 34.765625 69.71875 25.78125 
Q 67.96875 16.796875 64.25 9.171875 
Q 60.546875 1.5625 49.21875 -10.546875 
Q 45.3125 -6.640625 42.1875 -5.46875 
Q 49.609375 0.390625 54.296875 6.828125 
Q 58.984375 13.28125 60.9375 20.109375 
Q 62.890625 26.953125 63.671875 34.375 
Q 64.453125 41.796875 64.84375 51.953125 
L 58.203125 51.953125 
Q 53.90625 51.953125 48.046875 51.5625 
L 48.046875 58.984375 
Q 53.90625 58.59375 58.984375 58.59375 
L 64.84375 58.59375 
L 64.84375 69.53125 
Q 64.84375 75 64.453125 80.46875 
z
M 4.296875 47.265625 
Q 10.15625 46.875 18.359375 46.875 
L 33.203125 46.875 
Q 40.234375 46.875 49.21875 47.265625 
L 49.21875 40.234375 
Q 40.234375 40.625 33.59375 40.625 
L 29.296875 40.625 
Q 26.953125 34.375 24.015625 27.34375 
Q 21.09375 20.3125 17.1875 13.28125 
Q 32.421875 14.84375 40.234375 16.40625 
Q 38.28125 21.09375 33.984375 28.125 
Q 38.28125 30.46875 40.234375 32.03125 
Q 44.140625 25 46.875 20.109375 
Q 49.609375 15.234375 52.734375 8.203125 
Q 49.609375 6.25 45.703125 4.296875 
Q 44.140625 7.8125 42.96875 10.15625 
Q 30.46875 8.203125 22.84375 7.03125 
Q 15.234375 5.859375 9.765625 3.90625 
Q 8.203125 7.8125 5.859375 11.328125 
Q 10.9375 14.453125 15.03125 23.828125 
Q 19.140625 33.203125 21.09375 40.625 
L 18.359375 40.625 
Q 10.15625 40.625 4.296875 40.234375 
z
M 31.25 69.140625 
Q 37.890625 69.140625 46.09375 69.53125 
L 46.09375 62.109375 
Q 37.890625 62.5 31.25 62.5 
L 21.875 62.5 
Q 15.625 62.5 9.765625 62.109375 
L 9.765625 69.53125 
Q 15.234375 69.140625 21.484375 69.140625 
z
" id="SimHei-52a8"/>
     <path d="M 37.5 74.609375 
Q 37.109375 67.96875 37.109375 60.546875 
L 37.109375 1.953125 
Q 37.109375 -5.46875 23.828125 -7.03125 
Q 23.828125 -3.125 21.09375 1.5625 
Q 30.078125 0.78125 30.078125 3.90625 
L 30.078125 23.046875 
L 18.359375 23.046875 
Q 17.578125 14.0625 15.625 4.875 
Q 13.671875 -4.296875 11.328125 -10.15625 
Q 7.8125 -6.25 4.296875 -4.6875 
Q 8.203125 1.953125 9.765625 9.765625 
Q 11.328125 17.578125 11.90625 25.78125 
Q 12.5 33.984375 12.5 49.609375 
Q 12.5 65.625 12.109375 74.609375 
L 37.5 74.609375 
z
M 70.703125 63.28125 
L 70.703125 46.09375 
Q 71.875 41.796875 74.609375 37.890625 
Q 80.078125 43.75 83 47.453125 
Q 85.9375 51.171875 88.671875 55.859375 
Q 93.359375 51.953125 96.484375 50 
Q 92.1875 47.265625 87.890625 42.96875 
L 77.34375 32.421875 
Q 81.25 23.4375 86.328125 17.96875 
Q 91.40625 12.5 96.875 9.375 
Q 94.53125 7.03125 91.015625 0.78125 
Q 83.59375 8.984375 79.09375 15.421875 
Q 74.609375 21.875 70.703125 32.8125 
L 70.703125 2.34375 
Q 70.3125 -6.25 66.015625 -8 
Q 61.71875 -9.765625 57.03125 -10.546875 
Q 56.25 -6.25 53.90625 -1.5625 
Q 63.671875 -2.734375 63.671875 2.734375 
L 63.671875 56.640625 
L 58.203125 56.640625 
Q 52.34375 56.640625 46.09375 56.25 
L 46.09375 63.671875 
Q 52.734375 63.28125 58.203125 63.28125 
z
M 60.9375 43.75 
Q 59.375 36.71875 58.390625 30.65625 
Q 57.421875 24.609375 55.859375 19.53125 
Q 54.296875 14.453125 51.953125 9.5625 
Q 49.609375 4.6875 46.09375 -0.390625 
Q 41.015625 4.6875 38.671875 5.46875 
Q 45.3125 10.9375 48.234375 20.109375 
Q 51.171875 29.296875 52.34375 37.5 
Q 48.046875 37.5 42.578125 37.109375 
L 42.578125 44.140625 
Q 47.65625 43.75 51.953125 43.75 
z
M 57.03125 82.8125 
Q 62.109375 80.46875 67.375 77.34375 
Q 72.65625 74.21875 78.90625 70.703125 
Q 76.953125 68.359375 74.21875 64.0625 
Q 68.359375 67.96875 63.671875 70.703125 
Q 58.984375 73.4375 53.125 76.171875 
Q 55.078125 79.6875 57.03125 82.8125 
z
M 30.078125 51.5625 
L 30.078125 68.359375 
L 19.140625 68.359375 
L 19.140625 51.5625 
z
M 30.078125 29.6875 
L 30.078125 45.3125 
L 19.140625 45.3125 
L 19.140625 29.6875 
z
" id="SimHei-8109"/>
     <path d="M 27.34375 42.1875 
Q 14.84375 42.1875 7.421875 41.796875 
L 7.421875 48.828125 
Q 14.84375 48.4375 25.390625 48.4375 
L 25.390625 60.9375 
Q 16.796875 60.9375 9.765625 60.546875 
L 9.765625 67.96875 
Q 16.796875 67.578125 25.390625 67.578125 
Q 25.390625 74.21875 25 81.25 
L 32.8125 81.25 
Q 32.421875 75 32.421875 67.578125 
Q 39.0625 67.578125 45.703125 67.96875 
L 45.703125 60.546875 
Q 39.453125 60.9375 32.421875 60.9375 
L 32.421875 48.4375 
Q 39.84375 48.4375 48.046875 48.828125 
L 48.046875 45.3125 
Q 54.6875 49.21875 58.203125 55.859375 
Q 61.71875 62.5 62.109375 69.53125 
Q 56.25 69.53125 50.390625 69.140625 
L 50.390625 76.171875 
Q 56.25 75.78125 60.9375 75.78125 
L 91.40625 75.78125 
Q 90.625 70.703125 90.625 65.625 
L 89.84375 51.953125 
Q 89.453125 45.3125 85.34375 43.15625 
Q 81.25 41.015625 73.828125 39.84375 
Q 73.046875 44.140625 70.703125 48.046875 
Q 76.953125 48.046875 79.484375 48.828125 
Q 82.03125 49.609375 82.421875 53.125 
L 83.203125 69.53125 
L 69.921875 69.53125 
Q 68.359375 58.203125 64.25 50.96875 
Q 60.15625 43.75 53.90625 39.0625 
Q 52.34375 40.625 48.046875 43.75 
L 48.046875 41.796875 
Q 39.84375 42.1875 34.375 42.1875 
L 34.375 28.90625 
Q 39.453125 28.90625 46.875 29.296875 
L 46.875 21.875 
Q 39.84375 22.265625 34.375 22.265625 
L 34.375 4.6875 
Q 44.140625 0.390625 61.328125 0 
Q 78.515625 -0.390625 96.484375 1.5625 
Q 92.96875 -3.515625 92.578125 -7.8125 
Q 76.953125 -8.203125 66.40625 -8.203125 
Q 55.859375 -8.203125 47.265625 -6.828125 
Q 38.671875 -5.46875 31.25 -1.953125 
Q 23.828125 1.5625 16.796875 9.765625 
Q 14.84375 1.171875 10.546875 -7.421875 
Q 6.640625 -4.296875 3.125 -2.734375 
Q 7.421875 3.515625 8.984375 9.953125 
Q 10.546875 16.40625 11.125 21.671875 
Q 11.71875 26.953125 11.71875 34.375 
L 21.09375 32.8125 
Q 19.140625 27.34375 18.359375 17.1875 
Q 21.875 12.5 27.34375 8.59375 
z
M 90.625 37.5 
Q 90.234375 29.6875 90.234375 21.484375 
Q 90.234375 13.28125 90.625 7.03125 
L 54.6875 7.03125 
Q 55.078125 12.109375 55.078125 20.703125 
Q 55.078125 29.6875 54.6875 37.5 
L 90.625 37.5 
z
M 83.203125 13.671875 
L 83.203125 30.859375 
L 62.109375 30.859375 
L 62.109375 13.671875 
z
" id="SimHei-8d85"/>
     <path d="M 85.9375 43.75 
Q 85.546875 39.0625 85.546875 28.125 
Q 85.546875 17.1875 85.9375 10.9375 
L 77.734375 10.9375 
L 77.734375 16.40625 
L 24.609375 16.40625 
Q 23.828125 10.15625 21.09375 4.09375 
Q 18.359375 -1.953125 11.71875 -10.15625 
Q 8.59375 -6.25 3.90625 -4.6875 
Q 8.984375 0 11.90625 4.6875 
Q 14.84375 9.375 16.203125 15.03125 
Q 17.578125 20.703125 17.578125 27.734375 
Q 17.578125 34.765625 17.1875 43.75 
L 85.9375 43.75 
z
M 47.65625 73.4375 
Q 47.65625 79.296875 47.265625 81.640625 
L 55.859375 81.640625 
Q 55.46875 79.296875 55.46875 73.4375 
L 76.5625 73.4375 
Q 85.15625 73.4375 92.578125 73.828125 
L 92.578125 66.796875 
Q 85.15625 67.1875 76.5625 67.1875 
L 55.46875 67.1875 
L 55.46875 57.03125 
L 70.703125 57.03125 
Q 79.296875 57.03125 87.109375 57.421875 
L 87.109375 50.390625 
Q 79.296875 50.78125 70.703125 50.78125 
L 30.46875 50.78125 
Q 21.875 50.78125 16.015625 50.390625 
L 16.015625 57.421875 
Q 22.265625 57.03125 30.078125 57.03125 
L 47.65625 57.03125 
L 47.65625 67.1875 
L 26.171875 67.1875 
Q 16.40625 67.1875 9.765625 66.796875 
L 9.765625 73.828125 
Q 16.796875 73.4375 26.171875 73.4375 
z
M 77.734375 22.65625 
L 77.734375 37.109375 
L 55.46875 37.109375 
L 55.46875 22.65625 
z
M 47.65625 22.65625 
L 47.65625 37.109375 
L 26.171875 37.109375 
L 26.171875 22.65625 
z
" id="SimHei-58f0"/>
     <path d="M 67.96875 62.890625 
Q 71.875 71.484375 75.78125 81.640625 
Q 82.03125 79.296875 83.984375 78.125 
Q 80.46875 73.828125 75.78125 62.890625 
L 77.34375 62.890625 
Q 88.28125 63.28125 92.96875 63.28125 
L 92.96875 56.25 
Q 88.671875 56.640625 80.859375 56.640625 
L 71.09375 56.640625 
L 71.09375 41.40625 
L 77.34375 41.40625 
Q 86.328125 41.796875 90.625 41.796875 
L 90.625 34.765625 
Q 85.546875 35.15625 78.515625 35.15625 
L 71.09375 35.15625 
L 71.09375 19.140625 
L 83.203125 19.140625 
Q 90.625 19.53125 95.3125 19.53125 
L 95.3125 12.5 
Q 91.015625 12.890625 83.203125 12.890625 
L 71.09375 12.890625 
L 71.09375 4.296875 
Q 71.09375 -3.90625 71.484375 -9.375 
L 63.671875 -9.375 
L 63.671875 12.890625 
L 54.296875 12.890625 
Q 46.875 12.890625 39.84375 12.5 
L 39.84375 19.921875 
Q 46.875 19.53125 54.6875 19.140625 
L 63.671875 19.140625 
L 63.671875 35.15625 
L 57.03125 35.15625 
Q 50.390625 35.15625 45.3125 34.765625 
L 45.3125 42.1875 
Q 50 41.796875 57.421875 41.40625 
L 63.671875 41.40625 
L 63.671875 56.640625 
L 54.296875 56.640625 
Q 47.65625 56.640625 42.96875 56.25 
L 42.96875 63.671875 
Q 47.65625 63.28125 54.296875 62.890625 
z
M 20.703125 67.96875 
Q 20.703125 74.609375 20.3125 80.078125 
L 28.515625 80.078125 
Q 28.125 73.828125 28.125 67.96875 
L 28.125 58.59375 
Q 33.203125 58.59375 38.671875 58.984375 
L 38.671875 51.953125 
Q 33.203125 52.34375 28.125 52.34375 
L 28.125 37.890625 
Q 31.25 40.625 32.8125 41.796875 
Q 37.109375 36.328125 42.578125 27.734375 
Q 40.234375 26.5625 35.9375 23.046875 
Q 31.640625 30.859375 28.125 36.71875 
L 28.125 7.421875 
Q 28.125 -0.78125 28.515625 -8.984375 
L 20.3125 -8.984375 
Q 20.703125 -0.390625 20.703125 7.421875 
L 20.703125 35.15625 
Q 14.453125 20.3125 8.203125 11.328125 
Q 6.640625 14.84375 3.515625 18.359375 
Q 14.84375 33.59375 19.140625 52.34375 
Q 12.890625 52.34375 5.46875 51.953125 
L 5.46875 58.984375 
Q 12.890625 58.59375 20.703125 58.59375 
z
M 55.859375 81.25 
Q 59.375 74.609375 61.71875 67.96875 
Q 57.03125 66.40625 55.078125 65.234375 
Q 52.34375 71.875 49.21875 78.125 
Q 53.515625 80.078125 55.859375 81.25 
z
" id="SimHei-6837"/>
     <path d="M 46.09375 61.328125 
L 46.09375 69.140625 
Q 46.09375 75.390625 45.703125 80.859375 
L 54.296875 80.859375 
Q 53.90625 76.5625 53.90625 69.53125 
L 53.90625 61.328125 
L 75.78125 61.328125 
Q 82.421875 61.328125 91.40625 61.71875 
L 91.40625 54.296875 
Q 82.8125 54.6875 76.171875 54.6875 
L 60.15625 54.6875 
Q 65.625 36.71875 75.96875 26.359375 
Q 86.328125 16.015625 94.921875 12.5 
Q 91.40625 9.765625 88.28125 5.078125 
Q 75 14.0625 66.59375 25.578125 
Q 58.203125 37.109375 53.90625 52.34375 
L 53.90625 15.625 
L 58.984375 15.625 
Q 65.234375 15.625 71.875 16.015625 
L 71.875 8.59375 
Q 65.234375 8.984375 58.59375 8.984375 
L 53.90625 8.984375 
Q 53.90625 0 54.296875 -9.375 
L 45.703125 -9.375 
Q 46.09375 0 46.09375 8.984375 
L 41.015625 8.984375 
Q 34.765625 8.984375 28.515625 8.59375 
L 28.515625 16.015625 
Q 34.765625 15.625 41.015625 15.625 
L 46.09375 15.625 
L 46.09375 51.5625 
Q 39.84375 35.546875 32.21875 24.609375 
Q 24.609375 13.671875 11.71875 2.734375 
Q 8.59375 7.03125 4.296875 8.984375 
Q 17.1875 16.796875 25.78125 28.515625 
Q 34.375 40.234375 39.453125 54.6875 
L 22.265625 54.6875 
Q 16.015625 54.6875 8.984375 54.296875 
L 8.984375 61.71875 
Q 16.015625 61.328125 21.875 61.328125 
z
" id="SimHei-672c"/>
     <path d="M 80.46875 67.1875 
Q 86.328125 67.1875 92.96875 67.578125 
L 92.96875 60.546875 
Q 86.71875 60.9375 80.859375 60.9375 
L 58.984375 60.9375 
Q 62.109375 58.59375 66.40625 56.25 
Q 63.28125 53.90625 59.953125 49.40625 
Q 56.640625 44.921875 50.390625 37.109375 
Q 59.375 37.109375 78.515625 39.0625 
Q 76.953125 41.015625 72.265625 46.484375 
Q 75.78125 48.4375 78.515625 50.78125 
Q 85.15625 43.75 92.96875 32.8125 
Q 89.0625 30.46875 86.328125 27.734375 
Q 83.984375 30.859375 82.421875 33.203125 
Q 76.953125 32.8125 75.390625 32.421875 
L 75.390625 3.125 
Q 75.390625 -1.5625 79.296875 -1.5625 
L 83.203125 -1.5625 
Q 86.71875 -1.5625 87.890625 8.984375 
Q 91.40625 6.25 96.09375 5.078125 
Q 92.578125 -8.203125 86.328125 -8.203125 
L 75.78125 -8.203125 
Q 67.96875 -8.203125 67.96875 0 
L 67.96875 31.640625 
Q 62.5 31.25 60.546875 30.859375 
Q 60.9375 16.40625 56.828125 7.21875 
Q 52.734375 -1.953125 41.015625 -10.9375 
Q 39.0625 -7.8125 33.984375 -5.859375 
Q 40.234375 -1.953125 44.53125 2.734375 
Q 48.828125 7.421875 51.171875 13.28125 
Q 53.515625 19.140625 53.125 30.078125 
Q 47.265625 29.6875 42.578125 28.515625 
Q 41.40625 34.375 39.453125 38.671875 
Q 44.140625 39.0625 49.796875 46.484375 
Q 55.46875 53.90625 57.421875 60.9375 
L 51.171875 60.9375 
Q 46.09375 60.9375 38.671875 60.546875 
L 38.671875 67.578125 
Q 44.921875 67.1875 50.78125 67.1875 
z
M 29.296875 75.390625 
Q 26.5625 71.875 23.4375 66.40625 
Q 20.3125 60.9375 14.0625 50.78125 
Q 21.484375 51.171875 25.78125 51.171875 
Q 28.90625 56.640625 30.859375 62.109375 
Q 35.15625 59.375 39.84375 57.421875 
Q 37.109375 54.6875 32.421875 47.453125 
Q 27.734375 40.234375 19.140625 26.953125 
Q 30.46875 28.125 39.0625 29.6875 
Q 37.109375 25 37.109375 22.265625 
Q 33.59375 21.875 24.796875 20.703125 
Q 16.015625 19.53125 9.375 17.578125 
Q 8.203125 21.484375 6.640625 25.390625 
Q 10.9375 26.5625 14.84375 32.421875 
Q 18.75 38.28125 22.65625 45.3125 
Q 19.140625 44.921875 14.453125 44.328125 
Q 9.765625 43.75 6.640625 42.96875 
Q 5.078125 46.875 3.125 50.390625 
Q 7.8125 51.5625 13.46875 62.890625 
Q 19.140625 74.21875 19.921875 79.296875 
Q 24.609375 76.953125 29.296875 75.390625 
z
M 39.84375 12.890625 
Q 39.453125 8.984375 39.84375 5.46875 
Q 30.859375 3.125 22.0625 0.578125 
Q 13.28125 -1.953125 8.59375 -3.90625 
Q 7.03125 0 4.296875 4.296875 
Q 14.0625 5.859375 22.65625 7.8125 
Q 31.25 9.765625 39.84375 12.890625 
z
M 64.0625 82.421875 
Q 68.359375 75.390625 70.3125 71.484375 
Q 67.578125 70.3125 62.890625 67.96875 
Q 59.765625 75.390625 57.03125 79.296875 
Q 61.71875 80.859375 64.0625 82.421875 
z
" id="SimHei-7edf"/>
     <path d="M 61.328125 48.4375 
L 61.328125 67.96875 
Q 61.328125 75.78125 60.9375 80.078125 
L 69.140625 80.078125 
Q 68.75 75 68.75 71.09375 
L 68.75 48.4375 
L 84.765625 48.4375 
Q 89.453125 48.4375 94.921875 48.828125 
L 94.921875 41.40625 
Q 89.0625 41.796875 85.15625 41.796875 
L 68.75 41.796875 
L 68.75 2.734375 
Q 68.75 -1.953125 69.140625 -8.59375 
L 60.9375 -8.59375 
Q 61.328125 -1.953125 61.328125 2.34375 
L 61.328125 41.796875 
L 46.09375 41.796875 
Q 40.234375 41.796875 34.375 41.40625 
L 34.375 48.828125 
Q 40.234375 48.4375 45.3125 48.4375 
z
M 27.734375 49.21875 
Q 27.34375 41.796875 27.34375 33.59375 
L 27.34375 9.765625 
Q 33.984375 16.40625 37.890625 21.875 
Q 40.234375 18.75 43.359375 15.625 
L 32.421875 4.6875 
Q 27.34375 -0.390625 22.65625 -5.46875 
Q 19.921875 -1.953125 17.578125 0.78125 
Q 20.3125 3.90625 19.921875 10.15625 
L 19.921875 42.578125 
Q 9.375 42.578125 4.296875 42.1875 
L 4.296875 49.609375 
Q 10.546875 49.21875 12.890625 49.21875 
z
M 17.96875 78.90625 
Q 23.046875 73.828125 33.984375 62.5 
Q 30.46875 59.375 27.34375 56.640625 
Q 22.265625 64.0625 12.109375 74.21875 
Q 14.84375 76.171875 17.96875 78.90625 
z
" id="SimHei-8ba1"/>
    </defs>
    <g transform="translate(278.1 45.84)scale(0.12 -0.12)">
     <use xlink:href="#SimHei-9888"/>
     <use x="100" xlink:href="#SimHei-52a8"/>
     <use x="200" xlink:href="#SimHei-8109"/>
     <use x="300" xlink:href="#SimHei-8d85"/>
     <use x="400" xlink:href="#SimHei-58f0"/>
     <use x="500" xlink:href="#SimHei-6837"/>
     <use x="600" xlink:href="#SimHei-672c"/>
     <use x="700" xlink:href="#SimHei-7edf"/>
     <use x="800" xlink:href="#SimHei-8ba1"/>
    </g>
   </g>
   <g id="legend_1">
    <g id="patch_18">
     <path d="M 512.4 112.065 
L 574.8 112.065 
Q 577.2 112.065 577.2 109.665 
L 577.2 60.24 
Q 577.2 57.84 574.8 57.84 
L 512.4 57.84 
Q 510 57.84 510 60.24 
L 510 109.665 
Q 510 112.065 512.4 112.065 
z
" style="fill:#ffffff;opacity:0.8;stroke:#cccccc;stroke-linejoin:miter;"/>
    </g>
    <g id="patch_19">
     <path d="M 514.8 72.061875 
L 538.8 72.061875 
L 538.8 63.661875 
L 514.8 63.661875 
z
" style="fill:#ff0000;"/>
    </g>
    <g id="text_22">
     <!-- 人数 -->
     <g transform="translate(548.4 72.061875)scale(0.12 -0.12)">
      <use xlink:href="#SimHei-4eba"/>
      <use x="100" xlink:href="#SimHei-6570"/>
     </g>
    </g>
    <g id="patch_20">
     <path d="M 514.8 88.936875 
L 538.8 88.936875 
L 538.8 80.536875 
L 514.8 80.536875 
z
" style="fill:#008000;opacity:0.8;"/>
    </g>
    <g id="text_23">
     <!-- 横切 -->
     <defs>
      <path d="M 74.609375 69.921875 
Q 84.765625 69.921875 89.453125 70.3125 
L 89.453125 64.0625 
Q 84.375 64.453125 74.609375 64.453125 
L 74.609375 53.515625 
L 83.203125 53.515625 
Q 89.453125 53.515625 94.53125 53.90625 
L 94.53125 47.65625 
Q 89.0625 48.046875 83.203125 48.046875 
L 65.234375 48.046875 
L 65.234375 41.40625 
L 86.328125 41.40625 
Q 85.9375 35.9375 85.9375 25.390625 
Q 85.9375 15.234375 86.328125 9.765625 
L 39.0625 9.765625 
Q 39.453125 14.0625 39.453125 25 
Q 39.453125 35.9375 39.0625 41.40625 
L 58.59375 41.40625 
L 58.59375 48.046875 
L 44.53125 48.046875 
Q 39.0625 48.046875 35.15625 47.65625 
L 35.15625 53.90625 
Q 39.453125 53.515625 44.53125 53.515625 
L 50 53.515625 
L 50 64.453125 
Q 43.359375 64.453125 37.890625 64.0625 
L 37.890625 70.3125 
Q 43.75 69.921875 50 69.921875 
Q 50 75.78125 49.609375 79.6875 
L 56.640625 79.6875 
Q 56.25 76.171875 56.25 69.921875 
L 68.359375 69.921875 
Q 68.359375 76.5625 67.96875 80.46875 
L 75 80.46875 
Q 74.609375 76.953125 74.609375 69.921875 
z
M 17.1875 69.140625 
Q 17.1875 73.4375 16.796875 79.6875 
L 24.21875 79.6875 
Q 23.828125 74.609375 23.828125 69.140625 
L 23.828125 59.375 
Q 27.734375 59.375 32.8125 59.765625 
L 32.8125 53.125 
Q 27.734375 53.515625 23.828125 53.515625 
L 23.828125 36.328125 
Q 26.171875 38.28125 27.734375 40.234375 
Q 31.640625 35.15625 35.9375 29.296875 
Q 33.59375 27.734375 30.46875 25 
Q 26.5625 31.25 23.828125 34.375 
L 23.828125 3.515625 
Q 23.828125 -3.90625 24.21875 -9.765625 
L 16.796875 -9.765625 
Q 17.1875 -4.296875 17.1875 3.515625 
L 17.1875 35.546875 
Q 15.625 29.6875 13.28125 24.796875 
Q 10.9375 19.921875 7.8125 14.453125 
Q 5.859375 17.96875 2.734375 21.875 
Q 8.203125 28.515625 11.328125 36.328125 
Q 14.453125 44.140625 16.015625 53.515625 
Q 10.15625 53.515625 5.859375 53.125 
L 5.859375 59.765625 
Q 10.15625 59.375 17.1875 59.375 
z
M 72.265625 8.984375 
Q 76.5625 6.640625 81.4375 3.90625 
Q 86.328125 1.171875 92.1875 -2.734375 
Q 89.0625 -6.640625 87.5 -9.375 
Q 78.125 -2.734375 75.96875 -1.5625 
Q 73.828125 -0.390625 68.359375 2.34375 
Q 70.703125 5.078125 72.265625 8.984375 
z
M 57.421875 2.34375 
Q 52.734375 0 47.453125 -3.703125 
Q 42.1875 -7.421875 36.328125 -10.15625 
Q 34.765625 -6.25 32.421875 -3.515625 
Q 37.890625 -1.171875 41.796875 1.171875 
Q 45.703125 3.515625 51.5625 8.59375 
Q 54.296875 5.46875 57.421875 2.34375 
z
M 68.359375 53.515625 
L 68.359375 64.453125 
L 56.25 64.453125 
L 56.25 53.515625 
z
M 79.6875 15.234375 
L 79.6875 23.046875 
L 65.234375 23.046875 
L 65.234375 15.234375 
z
M 79.6875 28.125 
L 79.6875 35.9375 
L 65.234375 35.9375 
L 65.234375 28.125 
z
M 58.59375 28.125 
L 58.59375 35.9375 
L 45.703125 35.9375 
L 45.703125 28.125 
z
M 58.59375 15.234375 
L 58.59375 23.046875 
L 45.703125 23.046875 
L 45.703125 15.234375 
z
" id="SimHei-6a2a"/>
      <path d="M 65.625 1.953125 
Q 76.171875 1.953125 78.703125 2.921875 
Q 81.25 3.90625 81.640625 8.203125 
L 84.375 65.234375 
L 66.40625 65.234375 
Q 66.796875 44.921875 63.671875 31.046875 
Q 60.546875 17.1875 54.6875 8.984375 
Q 48.828125 0.78125 37.890625 -8.984375 
Q 35.546875 -5.859375 29.6875 -3.90625 
Q 39.84375 3.125 45.890625 10.546875 
Q 51.953125 17.96875 55.46875 30.078125 
Q 58.984375 42.1875 58.59375 65.234375 
Q 50 65.234375 42.1875 64.84375 
L 42.1875 71.875 
Q 49.609375 71.484375 56.640625 71.484375 
L 92.1875 71.484375 
Q 91.796875 65.625 91.40625 57.8125 
L 89.0625 5.078125 
Q 87.890625 -3.90625 83 -5.265625 
Q 78.125 -6.640625 69.53125 -8.203125 
Q 68.75 -3.125 65.625 1.953125 
z
M 18.359375 66.796875 
Q 18.359375 72.265625 17.96875 78.125 
L 25.78125 78.125 
Q 25.390625 72.265625 25.390625 67.1875 
L 25.390625 51.171875 
Q 33.59375 52.34375 42.1875 53.515625 
Q 42.578125 49.21875 42.96875 46.484375 
Q 36.328125 45.703125 25.390625 44.53125 
L 25.390625 16.40625 
Q 36.328125 23.046875 41.40625 27.34375 
Q 42.578125 24.21875 44.921875 20.3125 
Q 36.328125 15.234375 19.140625 3.125 
Q 16.796875 7.8125 14.453125 10.15625 
Q 18.359375 13.28125 18.359375 17.578125 
L 18.359375 43.359375 
Q 10.546875 42.578125 5.078125 41.796875 
Q 4.6875 46.484375 4.296875 49.21875 
Q 10.15625 49.609375 18.359375 50.390625 
z
" id="SimHei-5207"/>
     </defs>
     <g transform="translate(548.4 88.936875)scale(0.12 -0.12)">
      <use xlink:href="#SimHei-6a2a"/>
      <use x="100" xlink:href="#SimHei-5207"/>
     </g>
    </g>
    <g id="patch_21">
     <path d="M 514.8 105.765 
L 538.8 105.765 
L 538.8 97.365 
L 514.8 97.365 
z
" style="fill:#0000ff;opacity:0.8;"/>
    </g>
    <g id="text_24">
     <!-- 纵切 -->
     <defs>
      <path d="M 78.125 77.734375 
Q 77.734375 71.875 77.53125 61.328125 
Q 77.34375 50.78125 78.90625 39.25 
Q 80.46875 27.734375 85.34375 16.015625 
Q 90.234375 4.296875 96.875 -1.171875 
Q 93.359375 -3.515625 90.234375 -8.59375 
Q 85.9375 -3.90625 81.828125 4.296875 
Q 77.734375 12.5 74.21875 28.125 
Q 71.09375 11.71875 65.234375 2.140625 
Q 59.375 -7.421875 57.03125 -9.765625 
Q 53.125 -6.640625 49.609375 -5.46875 
Q 57.03125 1.171875 61.71875 11.125 
Q 66.40625 21.09375 67.96875 31.640625 
Q 69.53125 42.1875 69.53125 53.90625 
Q 69.53125 65.625 69.140625 78.515625 
L 78.125 77.734375 
z
M 53.125 78.90625 
Q 52.34375 71.484375 52.34375 64.0625 
Q 52.34375 56.640625 51.953125 40.234375 
Q 60.15625 30.859375 64.84375 24.21875 
Q 61.328125 21.09375 58.984375 17.96875 
Q 55.078125 26.171875 50.78125 31.640625 
Q 48.4375 14.84375 44.53125 6.046875 
Q 40.625 -2.734375 36.328125 -9.375 
Q 33.59375 -6.640625 28.515625 -5.46875 
Q 35.15625 2.734375 38.671875 12.296875 
Q 42.1875 21.875 43.75 32.8125 
Q 45.3125 43.75 45.109375 55.65625 
Q 44.921875 67.578125 44.53125 79.6875 
Q 49.609375 78.90625 53.125 78.90625 
z
M 7.8125 25 
Q 12.109375 28.125 15.03125 32.21875 
Q 17.96875 36.328125 21.875 43.359375 
Q 19.140625 43.359375 15.421875 42.578125 
Q 11.71875 41.796875 8.59375 40.625 
Q 7.421875 44.53125 5.46875 48.828125 
Q 9.375 51.5625 13.28125 60.9375 
Q 17.1875 70.3125 19.140625 80.46875 
Q 23.4375 78.515625 27.734375 77.34375 
Q 25.390625 72.265625 22.265625 66.015625 
Q 19.140625 59.765625 14.0625 49.21875 
Q 21.484375 49.21875 25 49.609375 
Q 28.90625 57.03125 30.859375 63.28125 
Q 33.984375 60.546875 38.28125 58.203125 
Q 35.15625 53.515625 31.046875 45.890625 
Q 26.953125 38.28125 18.359375 26.171875 
Q 22.65625 27.34375 36.328125 29.296875 
L 36.328125 22.65625 
Q 29.6875 21.875 23.828125 20.703125 
Q 17.96875 19.53125 11.328125 16.796875 
Q 9.765625 21.484375 7.8125 25 
z
M 5.859375 5.46875 
Q 10.9375 6.640625 17.96875 8.78125 
Q 25 10.9375 35.15625 14.453125 
Q 35.15625 11.328125 35.9375 7.421875 
Q 29.296875 6.25 22.0625 3.3125 
Q 14.84375 0.390625 9.765625 -2.34375 
Q 7.8125 2.34375 5.859375 5.46875 
z
" id="SimHei-7eb5"/>
     </defs>
     <g transform="translate(548.4 105.765)scale(0.12 -0.12)">
      <use xlink:href="#SimHei-7eb5"/>
      <use x="100" xlink:href="#SimHei-5207"/>
     </g>
    </g>
   </g>
  </g>
 </g>
 <defs>
  <clipPath id="pd84b29ef60">
   <rect height="332.64" width="502.2" x="81" y="51.84"/>
  </clipPath>
 </defs>
</svg>
